<svg width="51" height="61" viewBox="0 0 51 61" fill="none" xmlns="http://www.w3.org/2000/svg">
<path d="M33.6085 36.9689H28.5511V39.5821H33.6085V36.9689Z" fill="black"/>
<path d="M17.2941 36.9689H12.2367V39.5821H17.2941V36.9689Z" fill="black"/>
<path d="M41.2258 36.9689H36.7083V39.5821H41.2258V36.9689Z" fill="black"/>
<path d="M25.4513 36.9689H20.3939V39.5821H25.4513V36.9689Z" fill="black"/>
<path d="M49.4556 23.6634H8.86885L46.8978 9.667C47.2227 9.54739 47.4868 9.3035 47.632 8.98897C47.7773 8.67445 47.7918 8.31503 47.6724 7.98979L45.1673 1.16854C45.1081 1.00749 45.0179 0.859679 44.9017 0.733549C44.7854 0.607419 44.6456 0.505438 44.49 0.433429C44.3344 0.36142 44.1662 0.320793 43.9949 0.313869C43.8237 0.306945 43.6527 0.33386 43.4919 0.393075L1.61549 15.8056C1.29062 15.9252 1.02651 16.1691 0.881244 16.4836C0.735982 16.7981 0.721464 17.1575 0.840885 17.4828L3.34602 24.3041C3.39728 24.4423 3.47164 24.5708 3.56594 24.6841C3.54469 24.778 3.53386 24.8738 3.53362 24.9701V56.621C3.53472 57.5998 3.92361 58.5382 4.61496 59.2303C5.30631 59.9224 6.24368 60.3117 7.2214 60.3128H47.073C48.0507 60.3117 48.9881 59.9224 49.6794 59.2303C50.3708 58.5382 50.7596 57.5998 50.7607 56.621V24.97C50.7607 24.7984 50.727 24.6285 50.6614 24.47C50.5958 24.3115 50.4997 24.1674 50.3785 24.0461C50.2573 23.9248 50.1134 23.8285 49.9551 23.7629C49.7967 23.6972 49.627 23.6634 49.4556 23.6634ZM48.1504 30.9312H42.7404V26.2765H48.1504V30.9312ZM6.14391 30.9312V26.2765H11.5539V30.9312H6.14391ZM18.1628 26.2765H23.9303V30.9312H18.1628V26.2765ZM30.5393 26.2765H36.1315V30.9312H30.5392L30.5393 26.2765ZM22.0396 16.0319L16.6263 18.0242L15.0219 13.6555L20.4352 11.6632L22.0396 16.0319ZM26.6382 9.38026L31.8869 7.44848L33.4913 11.8171L28.2426 13.7489L26.6382 9.38026ZM44.7721 7.6653L39.6943 9.53408L38.0899 5.16539L43.1676 3.29657L44.7721 7.6653ZM8.81893 15.9385L10.4233 20.3072L5.34566 22.176L3.74122 17.8074L8.81893 15.9385ZM47.073 57.6997H7.2214C6.93573 57.6993 6.66187 57.5856 6.45987 57.3834C6.25788 57.1812 6.14425 56.907 6.14391 56.621V33.5442H48.1504V56.621C48.1501 56.907 48.0365 57.1812 47.8345 57.3834C47.6325 57.5856 47.3586 57.6993 47.073 57.6997Z" fill="black"/>
<path d="M42.0366 45.3777H12.2578C11.8056 45.3777 11.372 45.5576 11.0523 45.8776C10.7325 46.1977 10.5529 46.6318 10.5529 47.0844V51.7839C10.5529 51.9943 10.5943 52.2025 10.6747 52.3968C10.7551 52.5911 10.8729 52.7677 11.0215 52.9164C11.1701 53.0651 11.3464 53.1831 11.5405 53.2636C11.7346 53.3441 11.9427 53.3855 12.1528 53.3855H42.1415C42.3516 53.3855 42.5597 53.3441 42.7538 53.2636C42.9479 53.1831 43.1242 53.0651 43.2728 52.9164C43.4213 52.7677 43.5392 52.5911 43.6196 52.3968C43.7 52.2025 43.7413 51.9943 43.7413 51.7839V47.0844C43.7413 46.6318 43.5617 46.1977 43.242 45.8776C42.9223 45.5576 42.4887 45.3778 42.0366 45.3777Z" fill="black"/>
</svg>
